<?xml version="1.0" standalone="no"?>
<!DOCTYPE svg PUBLIC "-//W3C//DTD SVG 20010904//EN"
 "http://www.w3.org/TR/2001/REC-SVG-20010904/DTD/svg10.dtd">
<svg version="1.0" xmlns="http://www.w3.org/2000/svg"
 width="512.000000pt" height="512.000000pt" viewBox="0 0 512.000000 512.000000"
 preserveAspectRatio="xMidYMid meet">

<g transform="translate(0.000000,512.000000) scale(0.100000,-0.100000)"
fill="#000000" stroke="none">
<path d="M1910 5079 c0 -5 9 -9 20 -9 11 0 20 2 20 4 0 2 -9 6 -20 9 -11 3
-20 1 -20 -4z"/>
<path d="M1857 5066 c-8 -8 -35 -28 -60 -44 -26 -16 -43 -33 -39 -37 4 -5 2
-5 -5 -2 -12 7 -90 -50 -133 -98 -14 -15 -47 -42 -75 -60 -94 -61 -128 -106
-200 -263 -78 -172 -94 -226 -102 -350 -3 -52 -12 -100 -19 -110 -12 -15 -13
-7 -14 53 0 193 25 285 118 439 23 37 45 78 48 90 10 40 75 117 122 144 25 15
76 57 112 95 36 37 72 67 80 67 7 0 11 2 8 5 -2 3 -65 -7 -139 -21 -74 -14
-192 -29 -262 -33 l-128 -6 -39 -41 c-32 -34 -47 -42 -87 -47 -27 -3 -100 -28
-163 -55 -63 -27 -138 -57 -167 -66 -60 -20 -133 -80 -157 -130 -21 -45 -20
-95 3 -219 11 -56 27 -155 36 -220 26 -194 85 -317 227 -473 57 -63 66 -78 72
-124 13 -101 81 -230 120 -230 21 0 64 53 93 115 26 56 28 68 28 192 l0 132
31 33 c25 27 45 52 101 127 2 3 19 -10 38 -29 36 -35 75 -130 75 -183 0 -15 4
-26 10 -22 5 3 7 12 3 20 -3 8 0 15 6 15 6 0 12 -10 12 -22 1 -13 2 -27 4 -33
1 -5 3 -20 3 -33 1 -13 7 -20 12 -17 16 10 12 -35 -14 -168 -13 -67 -27 -151
-31 -187 -3 -36 -10 -71 -14 -78 -4 -8 -2 -52 6 -100 14 -86 44 -167 83 -222
11 -15 20 -36 20 -47 0 -10 13 -60 29 -110 16 -51 27 -93 25 -93 -2 0 1 -11 6
-25 7 -19 4 -35 -15 -72 -13 -27 -26 -59 -29 -73 -5 -23 -5 -22 7 3 13 26 15
17 25 -110 7 -76 16 -151 21 -168 9 -29 9 -29 10 13 1 34 4 42 20 42 31 0 78
-46 105 -103 48 -101 99 -306 156 -627 12 -69 29 -149 38 -179 13 -41 14 -55
5 -58 -8 -3 -10 -15 -6 -34 10 -50 -4 -32 -32 42 -34 87 -38 104 -74 299 -34
183 -43 210 -71 210 -25 0 -26 -29 -5 -185 7 -60 17 -156 21 -212 7 -112 1
-125 -36 -73 -12 16 -26 29 -32 27 -16 -3 -54 78 -95 203 -31 94 -36 125 -49
300 -7 107 -14 202 -14 210 0 13 -2 13 -9 1 -7 -11 -12 -10 -22 8 -22 33 -37
25 -45 -25 -9 -64 14 -222 36 -237 26 -19 28 -26 49 -164 27 -172 54 -240 159
-402 80 -122 138 -197 208 -266 33 -33 64 -69 68 -80 12 -30 33 -284 24 -279
-13 9 -9 -10 9 -36 9 -14 36 -46 60 -72 30 -33 41 -52 36 -64 -4 -12 -3 -15 6
-10 7 5 10 14 7 22 -3 8 1 14 9 14 18 0 18 4 5 50 -9 32 -8 33 5 16 19 -25 19
-9 0 24 -18 31 -19 46 -2 32 9 -8 12 2 11 46 -3 110 -4 123 -13 118 -8 -5 -22
63 -23 111 0 15 -5 20 -15 16 -12 -5 -12 0 2 33 18 45 54 86 67 78 5 -3 7 -2
6 3 -4 12 35 73 43 67 4 -2 11 1 15 7 4 8 3 9 -5 5 -8 -6 -10 4 -5 36 6 38 5
41 -7 25 -12 -15 -14 -9 -11 50 3 61 2 66 -11 49 -13 -18 -14 -16 -9 14 3 24
2 31 -8 25 -9 -6 -10 0 -5 25 5 23 4 30 -4 26 -7 -5 -11 7 -11 36 0 33 -3 39
-11 28 -8 -12 -9 -10 -4 7 7 26 -4 75 -15 68 -17 -11 3 71 23 93 15 16 17 22
6 22 -8 0 -10 3 -4 8 6 4 20 22 33 40 20 28 21 32 5 32 -15 0 -15 2 3 15 14
11 15 14 4 15 -13 0 -13 1 0 10 12 7 12 12 2 22 -19 19 -15 25 22 32 19 4 45
15 59 26 21 17 30 18 51 9 28 -13 56 -6 56 14 0 7 -22 41 -50 75 -27 34 -48
62 -45 62 2 0 31 -27 64 -61 51 -54 61 -60 79 -50 25 14 43 14 22 1 -13 -9
-13 -10 1 -10 8 0 19 4 25 9 5 4 40 2 79 -5 39 -7 93 -13 122 -13 50 -1 52 0
51 27 -1 25 -4 27 -33 24 -19 -2 -53 5 -80 17 -44 19 -49 20 -60 5 -8 -12 -33
-18 -87 -22 -82 -5 -91 0 -131 67 -13 23 -15 31 -5 37 7 4 10 4 6 -1 -12 -12
11 -44 45 -65 21 -13 50 -20 85 -20 96 0 120 38 37 59 -24 6 -57 23 -72 37
l-28 25 47 -26 c40 -22 65 -28 145 -32 54 -3 136 -1 182 6 46 6 86 9 89 7 2
-3 -18 -8 -46 -12 -44 -5 -51 -10 -66 -40 -22 -47 -20 -81 5 -94 27 -15 49 -6
49 19 0 32 11 52 34 61 14 5 27 23 35 49 7 25 16 39 23 35 7 -4 7 -9 0 -13 -6
-3 -14 -19 -17 -34 -7 -25 -5 -27 21 -27 23 0 26 -2 14 -10 -8 -5 -27 -10 -42
-10 -48 0 -80 -60 -36 -68 31 -6 98 18 98 35 0 9 3 14 6 10 10 -9 75 44 96 78
10 16 18 24 18 17 0 -17 -29 -72 -38 -72 -4 0 -18 -9 -31 -19 -17 -13 -19 -18
-7 -18 9 0 16 4 16 9 0 5 8 5 18 0 9 -4 24 -8 32 -8 8 1 18 -8 22 -19 11 -34
9 -100 -4 -113 -9 -9 -9 -12 3 -12 10 -1 9 -3 -4 -11 -9 -6 -15 -14 -12 -20 4
-5 1 -9 -4 -9 -6 0 -11 -5 -11 -11 0 -5 6 -7 13 -4 6 4 5 1 -4 -7 -9 -7 -16
-16 -16 -21 -1 -4 -4 -23 -7 -41 -4 -18 -2 -46 4 -61 6 -14 7 -32 3 -38 -4 -7
-6 -23 -4 -36 2 -16 -1 -21 -10 -15 -9 5 -10 2 -6 -10 4 -10 7 -28 7 -41 0
-34 52 -85 87 -85 43 0 70 25 88 83 37 117 58 167 68 160 5 -3 7 -1 4 5 -9 14
3 43 15 36 5 -3 7 -13 4 -21 -3 -8 -1 -11 4 -8 6 3 10 0 11 -7 4 -57 3 -85 -4
-95 -5 -7 -1 -25 9 -45 l17 -33 -22 19 c-23 21 -27 16 -9 -17 10 -20 10 -21
-6 -8 -15 13 -16 12 -6 -13 13 -34 13 -39 -1 -30 -8 5 -8 1 0 -14 14 -26 14
-35 0 -26 -7 4 -1 -7 12 -25 13 -17 38 -40 56 -51 35 -21 65 -18 56 6 -9 25
13 15 25 -11 15 -32 15 -38 2 -30 -5 3 -10 2 -10 -4 0 -5 5 -13 11 -16 5 -4 8
-12 6 -18 -2 -7 0 -20 5 -29 6 -12 5 -18 -3 -18 -7 0 -2 -12 12 -27 18 -20 20
-25 7 -20 -22 8 -23 -2 -2 -31 9 -13 11 -22 4 -22 -7 0 -8 -5 -3 -12 17 -27
30 -78 22 -84 -5 -3 -9 0 -9 5 0 6 -6 11 -12 11 -7 -1 1 -12 17 -26 l30 -26
-27 6 c-32 7 -39 -13 -13 -34 23 -19 18 -32 -7 -19 l-22 12 18 -28 c15 -23 16
-27 3 -22 -12 4 -14 2 -10 -10 5 -12 3 -14 -8 -8 -12 7 -12 6 -1 -7 14 -17 1
-34 -18 -23 -14 8 -1 -26 19 -48 14 -17 13 -17 -14 -7 -27 9 -28 9 -12 -4 18
-14 17 -15 -9 -18 -26 -3 -25 -5 25 -32 l54 -29 38 44 c21 24 43 50 49 56 17
20 27 54 34 113 12 89 35 150 57 150 11 0 25 13 35 32 28 53 64 170 64 204 0
18 5 36 12 40 20 13 0 -125 -31 -211 -16 -44 -32 -99 -36 -122 -4 -24 -11 -45
-16 -49 -5 -3 -9 -10 -9 -15 0 -6 15 4 33 20 17 17 36 31 40 31 5 0 5 5 2 10
-3 6 0 13 8 16 9 3 18 16 21 30 4 13 11 24 16 24 5 0 6 8 3 17 -6 16 -5 17 12
3 17 -14 18 -13 11 5 -5 11 -10 29 -13 40 -4 18 -3 18 16 -4 24 -26 27 -21 9
10 -10 17 -10 23 0 26 6 3 12 11 12 18 0 7 7 15 15 19 9 3 12 12 8 22 -5 14
-3 16 11 11 14 -5 17 -2 14 16 -2 16 1 21 15 19 17 -3 17 0 -3 37 -25 50 -25
63 0 32 53 -63 -3 33 -216 371 -76 121 -115 207 -139 309 -21 90 -18 134 11
214 20 54 27 93 30 171 2 56 8 113 13 125 22 55 61 192 61 215 0 14 14 45 30
70 35 49 60 114 60 152 0 14 16 59 36 100 56 118 69 180 68 322 0 103 -5 146
-28 239 -20 80 -29 141 -29 205 -1 81 2 98 29 156 43 91 56 100 85 58 13 -18
47 -59 76 -90 48 -52 52 -60 45 -90 -4 -18 -7 -74 -7 -123 0 -82 3 -97 33
-158 40 -80 77 -127 102 -127 46 0 93 101 106 228 7 64 8 65 79 136 53 53 83
94 118 162 56 110 71 163 97 353 11 80 27 182 36 226 34 167 -16 274 -144 311
-31 9 -109 36 -174 60 -64 24 -141 47 -172 50 -47 6 -60 12 -77 35 -33 46 -55
52 -189 54 -75 1 -157 9 -203 19 -104 23 -121 19 -70 -17 23 -16 60 -56 84
-90 24 -34 67 -92 95 -128 69 -86 84 -125 84 -212 0 -64 -1 -69 -14 -51 -8 10
-10 21 -5 22 5 2 9 8 9 13 0 6 -4 7 -10 4 -5 -3 -7 0 -5 7 12 31 -35 130 -102
211 -37 46 -83 105 -100 130 -18 26 -38 46 -45 45 -7 -2 -12 3 -13 9 0 17 -36
41 -57 37 -10 -1 -18 2 -18 7 0 6 -4 8 -9 4 -5 -3 -16 4 -24 15 -7 11 -17 17
-20 14 -4 -4 -9 1 -13 10 -3 9 -10 13 -15 11 -4 -3 -32 6 -60 21 -60 30 -125
29 -159 -1 -19 -17 -20 -17 -20 -1 0 9 -5 14 -10 11 -6 -4 -8 -11 -5 -16 4 -5
1 -9 -5 -9 -6 0 -8 -5 -4 -12 4 -6 3 -8 -3 -5 -6 4 -23 -9 -37 -28 -22 -29
-33 -34 -74 -37 l-47 -3 105 -34 c58 -19 116 -38 130 -43 14 -5 44 -25 67 -46
36 -31 41 -41 37 -64 -4 -16 -11 -25 -17 -21 -6 4 -7 1 -1 -8 22 -36 6 -34
-59 8 -40 25 -101 65 -137 88 -84 55 -108 67 -114 57 -2 -4 39 -32 92 -62 166
-92 227 -138 252 -189 12 -25 35 -67 51 -92 32 -50 39 -112 16 -143 -12 -16
-18 -12 -72 43 -44 44 -64 58 -74 52 -12 -8 -10 -21 12 -81 30 -79 34 -103 13
-75 -8 11 -12 24 -9 30 4 5 3 7 -1 3 -5 -4 -25 2 -44 13 -20 10 -43 19 -51 19
-31 0 -158 -45 -195 -70 -56 -36 -76 -67 -82 -130 -10 -87 -55 -107 -99 -43
-31 47 -32 87 -2 136 23 38 150 141 195 158 36 14 120 11 152 -6 38 -19 39 -3
3 23 -79 55 -112 65 -200 58 -69 -6 -88 -4 -112 10 -50 30 -48 94 4 118 37 18
38 18 160 -39 88 -41 168 -68 160 -54 -3 5 -30 25 -60 45 -31 20 -52 41 -48
47 3 5 1 7 -4 4 -14 -9 -30 11 -39 47 -5 21 -18 33 -49 47 -47 21 -95 56 -95
70 0 13 77 11 103 -2 12 -7 54 -42 92 -79 86 -83 191 -160 216 -160 48 0 8 47
-146 170 -112 90 -151 110 -213 110 -27 0 -57 6 -68 15 -10 8 -28 15 -38 15
-17 0 -18 -2 -4 -17 15 -19 58 -91 58 -99 0 -14 -27 2 -75 46 -30 28 -59 50
-63 50 -4 0 -25 -11 -47 -25 -51 -31 -73 -31 -115 0 -19 14 -47 25 -64 25 -35
0 -85 -29 -79 -46 4 -13 -58 -70 -93 -86 -28 -13 -30 -23 -9 -35 23 -13 -26
-54 -100 -83 -66 -25 -237 -124 -256 -146 -22 -27 2 -29 44 -5 123 71 179 95
258 111 48 10 97 24 110 31 33 18 55 21 40 6 -16 -16 -14 -27 7 -27 48 0 80
97 48 144 -21 32 -22 86 -1 86 9 0 12 -6 8 -17 -4 -11 -3 -14 5 -9 7 4 12 2
12 -4 0 -6 5 -8 11 -4 8 4 9 0 4 -15 -4 -13 -2 -21 5 -21 13 0 12 -110 -2
-157 -13 -44 -29 -54 -106 -69 -117 -21 -207 -43 -243 -58 -47 -19 -121 -86
-144 -130 -16 -29 -25 -36 -50 -36 -87 0 -233 -62 -263 -112 -9 -15 -20 -28
-25 -28 -5 0 -4 7 3 15 10 12 10 25 1 60 -10 40 -9 52 8 91 12 25 51 77 87
115 37 38 63 69 57 69 -21 0 -105 -85 -172 -173 -76 -102 -107 -132 -166 -168
l-39 -23 33 59 c47 84 91 144 211 290 58 70 105 130 105 133 0 4 29 32 65 63
36 31 76 68 89 83 14 14 30 26 38 26 7 0 13 4 13 9 0 5 18 16 41 25 22 9 64
32 92 51 42 28 61 35 102 35 41 1 47 3 31 11 -10 6 -43 9 -73 7 -54 -5 -54 -5
-83 36 -15 23 -44 56 -62 74 -30 28 -41 32 -79 30 -24 -2 -46 -5 -49 -8 -18
-18 -50 -29 -56 -18 -4 7 -3 8 4 4 7 -4 12 -3 12 3 0 6 12 17 28 25 18 10 21
15 10 16 -9 0 -23 -6 -31 -14z m843 -307 c0 -34 -2 -39 -14 -30 -11 9 -15 8
-20 -5 -6 -15 -8 -15 -26 1 -29 26 -6 75 36 75 21 0 24 -4 24 -41z m-303 -101
c-3 -8 -6 -5 -6 6 -1 11 2 17 5 13 3 -3 4 -12 1 -19z m378 -229 c-4 -5 -14 -9
-23 -10 -10 -1 -7 -4 8 -8 14 -4 28 -3 31 2 4 5 9 5 13 -1 3 -6 -11 -21 -31
-33 -21 -13 -41 -27 -44 -32 -3 -5 -9 1 -12 12 -3 12 -2 19 1 17 4 -2 21 2 37
9 l30 13 -33 -3 c-37 -3 -39 13 -4 31 12 6 19 14 14 19 -4 5 -1 5 6 1 7 -4 10
-12 7 -17z m1043 -54 c0 -16 -2 -15 -8 5 -4 14 -8 34 -8 45 0 16 2 15 8 -5 4
-14 8 -34 8 -45z m-1448 44 c0 -5 5 -7 12 -3 7 4 8 3 4 -5 -6 -9 -11 -9 -22 0
-17 14 -18 19 -4 19 6 0 10 -5 10 -11z m187 -11 c-3 -8 -6 -5 -6 6 -1 11 2 17
5 13 3 -3 4 -12 1 -19z m-274 -17 c26 -10 73 -64 79 -91 2 -8 8 -20 15 -28 7
-7 9 -20 6 -29 -5 -12 -3 -14 7 -8 8 5 11 4 6 -3 -3 -6 -2 -13 4 -17 15 -9 12
-91 -4 -104 -10 -9 -15 -8 -19 4 -4 8 -1 14 5 12 7 -1 14 6 16 17 2 11 0 16
-7 12 -6 -4 -11 -2 -11 4 0 6 -4 8 -10 5 -5 -3 -10 -1 -10 5 0 7 7 9 16 6 12
-5 14 -1 8 17 -9 28 -28 41 -32 22 -2 -9 -8 -12 -14 -9 -7 5 -9 -2 -6 -20 3
-14 1 -29 -3 -32 -5 -3 -8 20 -8 51 1 35 5 52 10 44 12 -20 30 2 23 29 -4 12
-11 19 -17 15 -6 -4 -8 0 -5 9 4 8 -2 22 -13 32 -25 21 -38 20 -34 -1 1 -10 7
-17 13 -16 12 3 10 -23 -3 -34 -4 -4 -5 -2 -1 5 5 9 3 12 -5 11 -8 -2 -25 3
-38 10 -25 14 -49 18 -141 21 l-55 2 35 14 c19 8 53 23 75 34 45 21 82 25 118
11z m386 -66 c0 -5 -4 -3 -9 5 -5 8 -9 22 -9 30 0 16 17 -16 18 -35z m-549
-15 c10 -6 2 -7 -25 -3 -49 7 -58 13 -19 13 16 0 36 -5 44 -10z m-33 -16 c-3
-3 -12 -4 -19 -1 -8 3 -5 6 6 6 11 1 17 -2 13 -5z m543 -264 c6 -58 16 -116
21 -130 5 -14 13 -52 18 -85 14 -88 14 -89 44 -132 22 -32 39 -43 85 -57 172
-54 380 -215 416 -323 24 -71 19 -127 -11 -131 -26 -4 -32 -22 -8 -22 11 0 15
-8 13 -27 -3 -23 4 -31 51 -57 30 -17 61 -42 69 -56 l16 -25 -25 22 c-28 26
-90 53 -118 53 -34 0 -34 -20 -1 -55 18 -18 29 -38 26 -43 -3 -6 15 -29 41
-51 27 -23 43 -41 36 -41 -7 0 -35 20 -63 45 -28 25 -57 45 -65 45 -24 0 -17
-37 13 -72 43 -50 75 -99 69 -105 -6 -5 -37 26 -75 76 -13 17 -32 31 -42 31
-10 0 -20 7 -24 15 -3 10 1 15 14 15 17 0 18 3 8 30 -5 17 -31 54 -57 83 -71
78 -96 117 -77 117 16 0 22 21 9 34 -4 3 -8 13 -9 21 -2 12 2 13 17 4 11 -6
25 -8 32 -6 7 2 -5 9 -25 16 -36 12 -52 31 -27 31 7 0 4 12 -7 28 -13 19 -17
42 -16 79 5 83 -49 162 -142 211 -46 24 -64 27 -181 30 -144 4 -213 -11 -281
-63 -59 -45 -77 -95 -76 -207 1 -95 1 -97 -33 -142 -34 -44 -34 -45 -12 -49
18 -4 18 -4 -6 -6 -41 -2 -104 -71 -64 -71 6 0 31 9 55 20 23 11 40 16 38 11
-3 -5 -20 -14 -37 -21 -25 -11 -30 -18 -26 -37 3 -17 0 -23 -14 -23 -13 0 -16
5 -12 16 12 31 -39 4 -105 -56 -35 -32 -82 -67 -105 -80 -39 -20 -38 -18 26
42 70 65 78 78 51 78 -13 0 -13 2 2 18 16 16 16 17 1 20 -9 2 -17 7 -17 12 0
4 -9 6 -20 3 -30 -8 -24 2 18 30 38 25 39 26 32 74 -3 26 -9 54 -14 61 -4 7 0
37 9 68 40 138 325 344 477 344 30 0 30 1 23 38 -11 56 -10 81 8 147 10 33 20
98 23 145 6 107 17 200 20 180 1 -8 7 -62 14 -120z m760 -199 c0 -31 -16 -43
-49 -34 -40 10 -19 63 26 63 19 0 23 -5 23 -29z m-1495 -1 c9 -15 -27 -70 -47
-70 -10 0 -25 12 -35 26 -16 25 -16 27 2 40 22 16 71 19 80 4z m1575 -80 c0
-5 -4 -10 -10 -10 -5 0 -10 5 -10 10 0 6 5 10 10 10 6 0 10 -4 10 -10z m-246
-66 c7 -29 6 -30 -22 -26 l-29 4 16 33 c18 37 26 35 35 -11z m-1195 -10 c12
-19 21 -37 21 -40 0 -7 -17 -5 -44 5 -23 9 -24 12 -13 40 6 17 12 31 13 31 1
0 11 -16 23 -36z m-251 -63 c9 -6 12 -11 6 -11 -15 0 -74 66 -74 83 0 6 11 -5
25 -25 14 -20 33 -42 43 -47z m-224 -310 c4 -141 11 -278 15 -306 5 -27 6 -55
4 -62 -6 -15 -23 -17 -23 -3 0 5 -14 32 -30 59 -77 124 -109 311 -75 425 8 27
15 82 15 122 0 107 5 113 50 63 l37 -41 7 -257z m1130 257 c3 -17 3 -35 -1
-38 -12 -10 -213 6 -225 18 -22 22 64 47 173 51 45 1 47 0 53 -31z m-427 -534
c-3 -3 -12 -4 -19 -1 -8 3 -5 6 6 6 11 1 17 -2 13 -5z m-497 -38 c0 -11 -33
-36 -48 -36 -13 0 -11 5 8 20 24 19 40 25 40 16z m502 -41 c-15 -47 -35 -55
-40 -17 -3 21 24 60 44 61 8 1 6 -14 -4 -44z m-72 -10 c0 -9 -61 -115 -69
-120 -11 -6 16 95 30 111 11 13 39 20 39 9z m121 -58 c-19 -55 -51 -120 -36
-72 3 11 9 34 12 50 7 34 32 89 39 83 2 -3 -5 -30 -15 -61z m699 23 c0 -5 -4
-10 -10 -10 -5 0 -10 5 -10 10 0 6 5 10 10 10 6 0 10 -4 10 -10z m100 -16 c0
-8 -5 -12 -10 -9 -6 4 -8 11 -5 16 9 14 15 11 15 -7z m-1025 -23 c15 -6 7 -9
-32 -15 -49 -6 -119 -43 -136 -72 -4 -8 -20 -14 -34 -14 l-26 0 28 22 c39 31
147 88 165 87 8 0 24 -4 35 -8z m145 -18 c-1 -16 -29 -45 -40 -41 -6 2 -5 11
5 26 16 21 35 30 35 15z m940 -58 c20 -24 6 -28 -15 -5 -10 11 -13 20 -8 20 6
0 16 -7 23 -15z m-1035 -20 c-33 -27 -45 -31 -45 -14 0 11 -18 8 -87 -17 -30
-11 -43 -21 -43 -34 0 -12 -18 -28 -52 -47 -29 -15 -54 -35 -54 -43 -1 -8 -2
-19 -3 -23 0 -5 -8 -1 -17 7 -14 15 -14 18 8 36 12 10 42 29 66 42 45 25 56
43 20 33 -13 -4 -3 6 21 20 46 29 141 59 141 45 0 -5 12 -2 28 6 42 22 50 16
17 -11z m105 8 c-1 -14 -27 -43 -39 -43 -16 0 -14 16 5 34 16 17 34 21 34 9z
m910 -112 c0 -11 -3 -11 -15 -1 -8 7 -15 24 -15 39 l1 26 14 -25 c8 -14 14
-31 15 -39z m-1000 18 c0 -10 -4 -19 -10 -19 -5 0 -7 7 -4 15 5 12 2 14 -12 8
-17 -6 -17 -5 -5 10 16 20 31 13 31 -14z m252 -66 c-26 -44 -62 -69 -62 -44 0
11 73 91 83 91 4 0 -6 -21 -21 -47z m16 -105 c6 -6 30 -11 54 -10 29 2 48 -4
62 -18 61 -56 147 -64 230 -20 85 46 119 46 204 4 40 -19 78 -45 86 -57 8 -12
16 -60 19 -107 3 -47 10 -86 16 -88 13 -4 15 -42 2 -42 -11 0 -66 45 -109 89
-29 29 -37 32 -70 27 -20 -4 -48 -16 -62 -26 -56 -44 -85 -53 -182 -58 -119
-6 -213 15 -292 65 -100 62 -132 156 -73 211 39 37 93 52 115 30z m-853 -86
c3 -21 2 -49 -4 -62 -8 -21 -10 -18 -10 27 -1 28 -4 59 -8 69 -4 11 -3 15 4
11 6 -4 14 -24 18 -45z m799 -410 c3 -5 -1 -9 -9 -9 -8 0 -15 4 -15 9 0 4 4 8
9 8 6 0 12 -4 15 -8z m610 -59 c-17 -27 -54 -62 -65 -63 -6 0 73 88 80 89 2 1
-5 -11 -15 -26z m78 -45 c-14 -15 -22 -18 -22 -9 0 15 32 43 39 35 3 -3 -5
-14 -17 -26z m-306 -55 c-11 -11 -17 4 -9 23 7 18 8 18 11 1 2 -10 1 -21 -2
-24z m-371 -23 c3 -5 1 -10 -4 -10 -6 0 -11 5 -11 10 0 6 2 10 4 10 3 0 8 -4
11 -10z m1053 -536 c-4 -3 -12 5 -18 18 -12 22 -12 22 6 6 10 -10 15 -20 12
-24z m2 -37 c0 -5 -7 -4 -15 3 -9 8 -15 9 -15 2 0 -6 5 -14 10 -17 6 -3 10
-11 10 -17 0 -7 -5 -6 -14 1 -8 7 -14 26 -14 42 1 28 2 29 20 13 10 -10 18
-21 18 -27z m-12 -66 c-11 -4 -48 28 -48 41 0 5 13 -1 28 -14 16 -13 25 -25
20 -27z"/>
<path d="M3045 3160 c14 -27 79 -59 92 -46 11 11 -37 52 -72 63 l-34 11 14
-28z"/>
<path d="M3030 3112 c0 -18 40 -60 70 -72 33 -14 46 -9 37 12 -6 17 -107 73
-107 60z"/>
<path d="M2515 4900 c-8 -13 95 -13 115 0 11 7 -3 10 -47 10 -34 0 -65 -4 -68
-10z"/>
<path d="M2179 4827 c-37 -28 -112 -85 -168 -126 -55 -40 -106 -80 -113 -88
-6 -8 -46 -37 -87 -63 -42 -27 -94 -68 -116 -90 -39 -41 -38 -41 45 17 47 33
120 85 163 116 43 31 99 64 125 73 26 10 57 25 69 33 27 20 166 181 156 181
-5 0 -38 -24 -74 -53z"/>
<path d="M2290 4827 c-21 -7 -61 -38 -100 -78 -36 -37 -108 -97 -160 -134 -94
-66 -163 -125 -156 -132 18 -19 360 203 396 257 13 19 37 50 54 68 32 34 26
38 -34 19z"/>
<path d="M2246 4668 c3 -5 10 -6 15 -3 13 9 11 12 -6 12 -8 0 -12 -4 -9 -9z"/>
<path d="M1422 3590 c0 -14 2 -19 5 -12 2 6 2 18 0 25 -3 6 -5 1 -5 -13z"/>
<path d="M1555 2074 c-3 -25 -4 -48 -1 -51 3 -3 -1 -18 -10 -34 -12 -24 -12
-28 0 -23 8 3 16 14 19 24 4 16 10 18 36 10 22 -6 31 -5 31 3 0 17 -52 117
-60 117 -4 0 -11 -21 -15 -46z"/>
<path d="M1233 1798 c-175 -255 -183 -269 -183 -307 0 -17 -4 -31 -10 -31 -5
0 -10 -11 -10 -24 0 -14 -5 -28 -10 -31 -6 -4 -7 -12 -3 -18 8 -13 10 -19 12
-43 2 -26 24 -10 27 20 2 18 23 49 58 86 44 46 72 92 140 231 47 96 94 207
104 247 11 39 18 72 16 72 -1 0 -65 -91 -141 -202z"/>
<path d="M2540 1906 c6 -8 33 -22 59 -31 55 -18 93 -9 111 25 10 20 8 20 -86
20 -83 0 -95 -2 -84 -14z"/>
<path d="M2420 1716 c0 -2 18 -13 40 -25 29 -15 46 -18 62 -12 25 10 24 10
-48 30 -45 12 -54 13 -54 7z"/>
<path d="M2643 1673 c9 -2 25 -2 35 0 9 3 1 5 -18 5 -19 0 -27 -2 -17 -5z"/>
<path d="M2760 1671 c0 -5 7 -12 16 -15 8 -3 13 -2 9 3 -3 5 1 12 7 14 7 3 3
6 -9 6 -13 1 -23 -3 -23 -8z"/>
<path d="M2695 1650 c-4 -6 1 -7 11 -3 13 5 15 3 9 -8 -7 -12 -6 -12 11 1 10
8 21 16 23 17 2 2 -7 3 -22 3 -14 0 -29 -4 -32 -10z"/>
<path d="M2766 1637 c3 -10 9 -15 12 -12 3 3 0 11 -7 18 -10 9 -11 8 -5 -6z"/>
<path d="M2740 1619 c0 -11 4 -18 10 -14 5 3 7 12 3 20 -7 21 -13 19 -13 -6z"/>
<path d="M2690 1606 c0 -8 4 -17 9 -20 5 -4 7 3 4 14 -6 23 -13 26 -13 6z"/>
<path d="M2415 1490 c-3 -5 -1 -10 4 -10 6 0 11 5 11 10 0 6 -2 10 -4 10 -3 0
-8 -4 -11 -10z"/>
<path d="M1020 1309 c0 -5 5 -7 10 -4 6 3 10 8 10 11 0 2 -4 4 -10 4 -5 0 -10
-5 -10 -11z"/>
<path d="M2382 1260 c0 -14 2 -19 5 -12 2 6 2 18 0 25 -3 6 -5 1 -5 -13z"/>
<path d="M2372 1150 c0 -14 2 -19 5 -12 2 6 2 18 0 25 -3 6 -5 1 -5 -13z"/>
<path d="M2371 1104 c0 -11 3 -14 6 -6 3 7 2 16 -1 19 -3 4 -6 -2 -5 -13z"/>
<path d="M2155 1029 c-4 -6 -5 -12 -2 -15 2 -3 7 2 10 11 7 17 1 20 -8 4z"/>
</g>
</svg>
